<svg width="14" height="17" viewBox="0 0 14 17" fill="none" xmlns="http://www.w3.org/2000/svg">
<path d="M12.6311 1.23106H10.4688V0H9.38763V1.23106H5.06296V0H3.98179V1.23106H1.81945C1.22481 1.23106 0.738281 1.78504 0.738281 2.46212V14.7727C0.738281 15.4498 1.22481 16.0038 1.81945 16.0038H12.6311C13.2258 16.0038 13.7123 15.4498 13.7123 14.7727V2.46212C13.7123 1.78504 13.2258 1.23106 12.6311 1.23106ZM12.6311 14.7727H1.81945V6.1553H12.6311V14.7727ZM12.6311 4.92424H1.81945V2.46212H3.98179V3.69318H5.06296V2.46212H9.38763V3.69318H10.4688V2.46212H12.6311V4.92424Z" fill="#18058D"/>
</svg>
