<svg width="38" height="34" viewBox="0 0 38 34" fill="none" xmlns="http://www.w3.org/2000/svg">
<path d="M5.42857 16.2857H13.5714V19H5.42857V16.2857Z" fill="#18058D"/>
<path d="M5.42857 10.8571H19V13.5714H5.42857V10.8571Z" fill="#18058D"/>
<path d="M5.42857 5.42856H19V8.14284H5.42857V5.42856Z" fill="#18058D"/>
<path d="M16.2857 29.8571H2.71429V2.71429H35.2857V16.2857H38V2.71429C38 1.99441 37.714 1.30402 37.205 0.794996C36.696 0.285968 36.0056 0 35.2857 0H2.71429C1.99441 0 1.30402 0.285968 0.794996 0.794996C0.285968 1.30402 0 1.99441 0 2.71429V29.8571C0 30.577 0.285968 31.2674 0.794996 31.7764C1.30402 32.2855 1.99441 32.5714 2.71429 32.5714H16.2857V29.8571Z" fill="#18058D"/>
<path d="M27.1429 29.3007L23.6279 25.7857L21.7143 27.6993L27.1429 33.1279L38 22.2707L36.0864 20.3571L27.1429 29.3007Z" fill="#18058D"/>
</svg>
