<svg width="64" height="75" viewBox="0 0 64 75" fill="none" xmlns="http://www.w3.org/2000/svg">
<g opacity="0.5">
<path d="M64 32C64 56.5106 32 74.2128 32 74.2128C32 74.2128 0 53.7872 0 32C0 14.3269 14.3269 0 32 0C49.6731 0 64 14.3269 64 32Z" fill="#18058D"/>
<path fill-rule="evenodd" clip-rule="evenodd" d="M27.4608 21.1064H36.2551C37.4209 21.1078 38.5385 21.5716 39.3628 22.3959C40.1871 23.2202 40.6508 24.3378 40.6522 25.5036V37.8157C40.6515 38.2819 40.466 38.7289 40.1363 39.0586C39.8066 39.3883 39.3596 39.5738 38.8934 39.5745V42.2128H37.1345V39.5745H26.5813V42.2128H24.8225V39.5745C24.3561 39.5741 23.909 39.3886 23.5793 39.0589C23.2495 38.7291 23.0641 38.282 23.0636 37.8157V25.5036C23.065 24.3378 23.5287 23.2202 24.353 22.3959C25.1774 21.5716 26.295 21.1078 27.4608 21.1064ZM38.8934 31.6596V26.383H24.8225V31.6596H38.8934ZM36.2551 22.8653H27.4608C26.9169 22.8669 26.3868 23.0369 25.9434 23.3518C25.5 23.6667 25.165 24.1112 24.9843 24.6242H38.7316C38.5509 24.1112 38.2158 23.6667 37.7724 23.3518C37.329 23.0369 36.799 22.8669 36.2551 22.8653ZM24.8225 33.4185V37.8157H38.8951L38.8943 33.4185H24.8225ZM20.4253 27.2625H22.1842V30.7802H20.4253V27.2625ZM41.5317 27.2625H43.2905V30.7802H41.5317V27.2625ZM37.1343 35.1774H35.3754V36.9362H37.1343V35.1774ZM26.5815 35.1774H28.3404V36.9362H26.5815V35.1774Z" fill="white"/>
</g>
</svg>
