<svg width="64" height="75" viewBox="0 0 64 75" fill="none" xmlns="http://www.w3.org/2000/svg">
<path d="M64 32.3936C64 56.9042 32 74.6063 32 74.6063C32 74.6063 0 54.1808 0 32.3936C0 14.7204 14.3269 0.393555 32 0.393555C49.6731 0.393555 64 14.7204 64 32.3936Z" fill="#18058D"/>
<path fill-rule="evenodd" clip-rule="evenodd" d="M27.4608 21.5H36.2551C37.4209 21.5014 38.5385 21.9651 39.3628 22.7894C40.1871 23.6138 40.6508 24.7314 40.6522 25.8972V38.2092C40.6515 38.6755 40.466 39.1225 40.1363 39.4522C39.8066 39.7819 39.3596 39.9674 38.8934 39.9681V42.6064H37.1345V39.9681H26.5813V42.6064H24.8225V39.9681C24.3561 39.9676 23.909 39.7822 23.5793 39.4524C23.2495 39.1227 23.0641 38.6756 23.0636 38.2092V25.8972C23.065 24.7314 23.5287 23.6138 24.353 22.7894C25.1774 21.9651 26.295 21.5014 27.4608 21.5ZM38.8934 32.0532V26.7766H24.8225V32.0532H38.8934ZM36.2551 23.2589H27.4608C26.9169 23.2605 26.3868 23.4304 25.9434 23.7453C25.5 24.0603 25.165 24.5047 24.9843 25.0177H38.7316C38.5509 24.5047 38.2158 24.0603 37.7724 23.7453C37.329 23.4304 36.799 23.2605 36.2551 23.2589ZM24.8225 33.8121V38.2092H38.8951L38.8943 33.8121H24.8225ZM20.4253 27.656H22.1842V31.1738H20.4253V27.656ZM41.5317 27.656H43.2905V31.1738H41.5317V27.656ZM37.1343 35.5709H35.3754V37.3298H37.1343V35.5709ZM26.5815 35.5709H28.3404V37.3298H26.5815V35.5709Z" fill="white"/>
</svg>
