<svg width="141" height="18" viewBox="0 0 141 18" fill="none" xmlns="http://www.w3.org/2000/svg">
<path d="M12.7015 5.14286H6.15832V12.8571H13.7279V16.9714L12.7015 18H3.07916L0 14.9143V3.08571L3.07916 0H13.7279V4.11429L12.7015 5.14286ZM16.2939 0H22.4522V6.68571H24.8899V0H31.0482V18H24.8899V11.3143H22.4522V18H16.2939V0ZM36.0519 0H46.3157L49.3949 18H43.4932L42.953 14.1429H39.4119L38.8744 18H32.9727L36.0519 0ZM42.2872 9.51429L41.67 5.14286H40.6949L40.0791 9.51429H42.2872ZM51.3194 0H57.4777V18H51.3194V0ZM60.0437 18V0H65.4322L68.6397 6.94286V0H74.798V18H69.4095L66.2043 11.0571V18H60.0437ZM89.0391 0L92.1183 3.08571V11.0571L89.0391 14.1429H83.5223V18H77.364V0H89.0391ZM83.5223 5.14286V9H85.96V5.14286H83.5223ZM94.6865 0H100.845V12.8571H107.642V16.9714L106.616 18H94.6865V0ZM118.293 0H124.452V14.9143L121.37 18H112.774L109.695 14.9143V0H115.854V12.8571H118.291L118.293 0ZM134.585 6.68571H141V18H129.836L126.757 14.9143V3.08571L129.836 0H140.487V4.11429L139.46 5.14286H132.919V12.8571H135.87V11.3143H134.585V6.68571Z" fill="white"/>
</svg>
