<svg width="15" height="12" viewBox="0 0 15 12" fill="none" xmlns="http://www.w3.org/2000/svg">
<path d="M10.337 3.52142L7.75806 6.05669C7.47987 5.92269 7.16326 5.89134 6.86418 5.96818C6.56511 6.04502 6.30283 6.22511 6.12369 6.47662C5.94454 6.72813 5.86007 7.03487 5.8852 7.34263C5.91033 7.65039 6.04345 7.93936 6.26102 8.15848C6.47859 8.37759 6.76662 8.51275 7.07419 8.54005C7.38177 8.56736 7.6891 8.48506 7.94187 8.3077C8.19464 8.13033 8.37657 7.86933 8.45553 7.57081C8.53448 7.27229 8.50537 6.95546 8.37333 6.67633L10.9566 4.14106L10.337 3.52142Z" fill="#F3F5FA"/>
<path d="M7.20388 4.72437e-06C5.83052 -0.00156872 4.4854 0.389912 3.32737 1.12821C2.16934 1.86651 1.24678 2.92079 0.668642 4.16653C0.0905068 5.41227 -0.119053 6.79745 0.0647113 8.15846C0.248476 9.51947 0.81789 10.7995 1.7057 11.8473L1.83661 12H12.5712L12.7021 11.8473C13.5899 10.7995 14.1593 9.51947 14.3431 8.15846C14.5268 6.79745 14.3173 5.41227 13.7391 4.16653C13.161 2.92079 12.2384 1.86651 11.0804 1.12821C9.92237 0.389912 8.57724 -0.00156872 7.20388 4.72437e-06ZM12.1522 11.1273H2.25552C1.47254 10.1475 0.99999 8.95625 0.89843 7.70618H2.40388V6.83346H0.89843C0.971506 5.44788 1.50081 4.12539 2.40388 3.072L3.47297 4.14109L4.08825 3.52582L3.02788 2.45237C4.06785 1.53318 5.38272 0.983914 6.76752 0.890186V2.41746H7.64024V0.89455C9.1699 1.00548 10.6069 1.66937 11.6829 2.76224C12.7589 3.85511 13.4004 5.30226 13.4875 6.83346H11.969V7.70618H13.5093C13.4078 8.95625 12.9352 10.1475 12.1522 11.1273Z" fill="#F3F5FA"/>
</svg>
