<svg width="16" height="14" viewBox="0 0 16 14" fill="none" xmlns="http://www.w3.org/2000/svg">
<path d="M14.375 0H0.958333C0.704167 0 0.460412 0.100967 0.280689 0.280689C0.100967 0.460412 0 0.704167 0 0.958333V10.5417C0 10.7958 0.100967 11.0396 0.280689 11.2193C0.460412 11.399 0.704167 11.5 0.958333 11.5H8.14583L8.41896 11.1646L8.86458 10.6183L8.82146 10.5417H0.958333V0.958333H14.375V5.06C14.739 5.29565 15.0626 5.58851 15.3333 5.92729V0.958333C15.3333 0.704167 15.2324 0.460412 15.0526 0.280689C14.8729 0.100967 14.6292 0 14.375 0Z" fill="#F3F5FA"/>
<path d="M2.39648 2.875H10.5423V3.64167H2.39648V2.875Z" fill="#F3F5FA"/>
<path d="M2.39648 4.79166H7.66732V5.55832H2.39648V4.79166Z" fill="#F3F5FA"/>
<path d="M2.39648 8.14584H7.18815V8.91251H2.39648V8.14584Z" fill="#F3F5FA"/>
<path d="M12.1987 5.38105C11.5855 5.37618 10.9851 5.5564 10.476 5.89815C9.96684 6.23991 9.57266 6.7273 9.34492 7.29664C9.11719 7.86597 9.0665 8.49077 9.19948 9.08937C9.33247 9.68797 9.64294 10.2325 10.0903 10.6519L9.16074 11.7875L9.59199 13.5173L11.3457 11.3802C11.9009 11.5444 12.4916 11.5444 13.0468 11.3802L14.8005 13.5173L15.2318 11.7875L14.3022 10.6519C14.7496 10.2325 15.06 9.68797 15.193 9.08937C15.326 8.49077 15.2753 7.86597 15.0476 7.29664C14.8199 6.7273 14.4257 6.23991 13.9165 5.89815C13.4074 5.5564 12.807 5.37618 12.1939 5.38105H12.1987ZM12.1987 10.4985C11.7915 10.4929 11.395 10.367 11.0592 10.1366C10.7234 9.90626 10.4632 9.58177 10.3113 9.20394C10.1594 8.82611 10.1225 8.4118 10.2054 8.0131C10.2883 7.6144 10.4873 7.24911 10.7772 6.96316C11.0671 6.6772 11.4352 6.48334 11.835 6.40596C12.2348 6.32858 12.6485 6.37112 13.0242 6.52824C13.3999 6.68536 13.7208 6.95004 13.9465 7.28901C14.1721 7.62799 14.2926 8.02611 14.2926 8.43334C14.2875 8.98449 14.0644 9.51119 13.672 9.89822C13.2796 10.2853 12.7498 10.5011 12.1987 10.4985Z" fill="#F3F5FA"/>
</svg>
