<svg width="15" height="15" viewBox="0 0 15 15" fill="none" xmlns="http://www.w3.org/2000/svg">
<path d="M14.7328 7.88305L11.4844 6.38375V2.08796C11.4829 1.99783 11.4556 1.91004 11.4057 1.83504C11.3558 1.76004 11.2855 1.701 11.2031 1.66496L7.6875 0.0434635C7.62579 0.0148307 7.55861 0 7.49062 0C7.42263 0 7.35545 0.0148307 7.29375 0.0434635L3.77812 1.66496C3.69676 1.70272 3.6279 1.76308 3.57971 1.83888C3.53152 1.91469 3.50603 2.00276 3.50625 2.09266V6.38845L0.271876 7.88305C0.190511 7.9208 0.121651 7.98117 0.0734626 8.05697C0.0252745 8.13278 -0.000220418 8.22085 1.43566e-06 8.31075V12.9073C-0.000220418 12.9972 0.0252745 13.0853 0.0734626 13.1611C0.121651 13.2369 0.190511 13.2973 0.271876 13.335L3.7875 14.9565C3.8492 14.9852 3.91638 15 3.98437 15C4.05237 15 4.11954 14.9852 4.18125 14.9565L7.5 13.4243L10.8187 14.9565C10.8804 14.9852 10.9476 15 11.0156 15C11.0836 15 11.1508 14.9852 11.2125 14.9565L14.7281 13.335C14.8095 13.2973 14.8783 13.2369 14.9265 13.1611C14.9747 13.0853 15.0002 12.9972 15 12.9073V8.31075C15.0006 8.22136 14.9758 8.13365 14.9285 8.05789C14.8812 7.98214 14.8133 7.92148 14.7328 7.88305ZM11.0203 9.40585L8.62499 8.31075L11.0203 7.20625L13.4156 8.31075L11.0203 9.40585ZM10.5516 6.37905L7.53281 7.78905V4.17476C7.58931 4.17225 7.64489 4.15951 7.69687 4.13716L10.5469 2.82586V6.38845L10.5516 6.37905ZM7.5 0.983462L9.89531 2.08796L7.5 3.19246L5.10937 2.08796L7.5 0.983462ZM3.98437 7.20155L6.37968 8.30605L3.98437 9.40585L1.58906 8.31075L3.98437 7.20155ZM7.03125 12.6018L3.98437 14.0118V10.3975C4.04979 10.3936 4.11366 10.376 4.17187 10.3458L7.02187 9.02985L7.03125 12.6018ZM14.0625 12.6018L11.0344 14.0118V10.3975C11.0934 10.3912 11.1506 10.3736 11.2031 10.3458L14.0531 9.02985L14.0625 12.6018Z" fill="#F3F5FA"/>
</svg>
