<svg width="16" height="16" viewBox="0 0 16 16" fill="none" xmlns="http://www.w3.org/2000/svg">
<path fill-rule="evenodd" clip-rule="evenodd" d="M13.7143 9.71429H16V10.8571H13.7143V12.5714C13.7138 12.8744 13.5933 13.1648 13.3791 13.3791C13.1648 13.5933 12.8744 13.7138 12.5714 13.7143H10.8571V16H9.71429V13.7143H6.28571V16H5.14286V13.7143H3.42857C3.12556 13.714 2.83505 13.5935 2.62078 13.3792C2.40652 13.165 2.28602 12.8744 2.28571 12.5714V10.8571H0V9.71429H2.28571V6.28571H0V5.14286H2.28571V3.42857C2.28602 3.12556 2.40652 2.83505 2.62078 2.62078C2.83505 2.40652 3.12556 2.28602 3.42857 2.28571H5.14286V0H6.28571V2.28571H8.57143V3.42857H3.42857V12.5714H12.5714V7.42857H13.7143V9.71429ZM12.0987 0.670138C12.5272 0.241615 13.1083 0.000605116 13.7143 0C14.3205 0 14.9019 0.240816 15.3305 0.66947C15.7592 1.09812 16 1.6795 16 2.28571C16 2.89192 15.7592 3.4733 15.3305 3.90196C14.9019 4.33061 14.3205 4.57143 13.7143 4.57143C13.3074 4.56949 12.9086 4.45775 12.56 4.248L10.8571 5.95086V10.8571H5.14286V5.14286H10.0491L11.7526 3.44C11.5427 3.09141 11.4307 2.69262 11.4286 2.28571C11.4292 1.67969 11.6702 1.09866 12.0987 0.670138ZM6.28571 9.71428H9.71428V6.28571H6.28571V9.71428ZM13.0793 3.23597C13.2673 3.36154 13.4882 3.42857 13.7143 3.42857C14.0173 3.42827 14.3078 3.30776 14.5221 3.0935C14.7363 2.87924 14.8568 2.58873 14.8571 2.28571C14.8571 2.05968 14.7901 1.83872 14.6645 1.65078C14.539 1.46284 14.3605 1.31635 14.1516 1.22985C13.9428 1.14335 13.713 1.12072 13.4913 1.16482C13.2696 1.20891 13.066 1.31776 12.9062 1.47759C12.7463 1.63742 12.6375 1.84106 12.5934 2.06275C12.5493 2.28445 12.5719 2.51424 12.6584 2.72307C12.7449 2.9319 12.8914 3.11039 13.0793 3.23597Z" fill="#F3F5FA"/>
</svg>
