<svg width="41" height="40" viewBox="0 0 41 40" fill="none" xmlns="http://www.w3.org/2000/svg">
<path d="M31.4012 17.7778C29.0437 17.7778 26.7827 16.8413 25.1158 15.1743C23.4488 13.5073 22.5123 11.2464 22.5123 8.88889C22.5123 6.53141 23.4488 4.27048 25.1158 2.60349C26.7827 0.936505 29.0437 0 31.4012 0C33.7586 0 36.0196 0.936505 37.6865 2.60349C39.3535 4.27048 40.29 6.53141 40.29 8.88889C40.29 11.2464 39.3535 13.5073 37.6865 15.1743C36.0196 16.8413 33.7586 17.7778 31.4012 17.7778ZM4.73448 4.44444H18.0678V8.88889H4.73448V35.5556H31.4012V22.2222H35.8456V35.5556C35.8456 36.7343 35.3773 37.8648 34.5438 38.6983C33.7104 39.5317 32.5799 40 31.4012 40H4.73448C3.55574 40 2.42528 39.5317 1.59179 38.6983C0.758292 37.8648 0.290039 36.7343 0.290039 35.5556V8.88889C0.290039 7.71015 0.758292 6.57969 1.59179 5.74619C2.42528 4.9127 3.55574 4.44444 4.73448 4.44444Z" fill="#18058D"/>
</svg>
