<svg width="19" height="18" viewBox="0 0 19 18" fill="none" xmlns="http://www.w3.org/2000/svg">
<path fill-rule="evenodd" clip-rule="evenodd" d="M13.3203 11.6086L18.1621 16.4505C18.3323 16.6208 18.4278 16.8518 18.4277 17.0925C18.4277 17.3333 18.3319 17.5641 18.1616 17.7343C17.9913 17.9045 17.7604 18.0001 17.5196 18C17.2789 17.9999 17.048 17.9042 16.8778 17.7339L12.0361 12.892C10.5887 14.0131 8.76857 14.5406 6.94601 14.3674C5.12346 14.1941 3.43537 13.333 2.22515 11.9593C1.01494 10.5855 0.373498 8.80231 0.431331 6.97241C0.489163 5.14251 1.24192 3.40337 2.53647 2.10879C3.83102 0.814208 5.57012 0.0614306 7.39997 0.00359662C9.22983 -0.0542374 11.013 0.587216 12.3867 1.79746C13.7604 3.00771 14.6215 4.69585 14.7948 6.51844C14.968 8.34104 14.4405 10.1612 13.3194 11.6086H13.3203ZM7.62807 12.5995C9.06017 12.5995 10.4336 12.0306 11.4463 11.0179C12.4589 10.0052 13.0278 8.63175 13.0278 7.19961C13.0278 5.76748 12.4589 4.39399 11.4463 3.38132C10.4336 2.36865 9.06017 1.79973 7.62807 1.79973C6.19597 1.79973 4.82252 2.36865 3.80987 3.38132C2.79722 4.39399 2.22832 5.76748 2.22832 7.19961C2.22832 8.63175 2.79722 10.0052 3.80987 11.0179C4.82252 12.0306 6.19597 12.5995 7.62807 12.5995Z" fill="white"/>
</svg>
