<svg width="52" height="46" viewBox="0 0 52 46" fill="none" xmlns="http://www.w3.org/2000/svg">
<path fill-rule="evenodd" clip-rule="evenodd" d="M30.3333 3C26.114 3 21.9894 4.25118 18.4812 6.59531C14.9729 8.93945 12.2386 12.2713 10.6239 16.1694C9.00925 20.0676 8.58678 24.357 9.40993 28.4953C10.2331 32.6335 12.2649 36.4348 15.2484 39.4183C18.2319 42.4018 22.0332 44.4336 26.1714 45.2568C30.3097 46.0799 34.5991 45.6574 38.4973 44.0428C42.3954 42.4281 45.7272 39.6937 48.0714 36.1855C50.4155 32.6772 51.6667 28.5527 51.6667 24.3333C51.6667 18.6754 49.4191 13.2492 45.4183 9.24839C41.4175 5.24761 35.9913 3 30.3333 3ZM30.3333 43C26.6414 43 23.0324 41.9052 19.9627 39.8541C16.893 37.803 14.5004 34.8876 13.0876 31.4768C11.6748 28.0659 11.3051 24.3126 12.0254 20.6916C12.7456 17.0707 14.5234 13.7446 17.134 11.134C19.7446 8.52343 23.0707 6.7456 26.6917 6.02534C30.3126 5.30508 34.0659 5.67475 37.4768 7.08758C40.8877 8.50042 43.803 10.893 45.8541 13.9627C47.9052 17.0324 49 20.6414 49 24.3333C49 29.284 47.0334 34.032 43.5327 37.5327C40.032 41.0333 35.2841 43 30.3333 43ZM30.3336 9.93335C27.4856 9.93335 24.7015 10.7779 22.3334 12.3602C19.9653 13.9425 18.1196 16.1915 17.0297 18.8227C15.9398 21.454 15.6547 24.3493 16.2103 27.1426C16.7659 29.936 18.1374 32.5018 20.1513 34.5157C22.1651 36.5296 24.731 37.901 27.5243 38.4567C30.3176 39.0123 33.213 38.7271 35.8442 37.6372C38.4755 36.5473 40.7245 34.7016 42.3068 32.3336C43.8891 29.9655 44.7336 27.1814 44.7336 24.3333C44.7301 20.5153 43.2118 16.8547 40.512 14.1549C37.8123 11.4552 34.1516 9.93688 30.3336 9.93335ZM30.3336 36.6C27.9075 36.6 25.5359 35.8806 23.5186 34.5327C21.5014 33.1848 19.9291 31.269 19.0007 29.0276C18.0723 26.7862 17.8293 24.3197 18.3026 21.9402C18.776 19.5607 19.9442 17.375 21.6598 15.6595C23.3753 13.944 25.561 12.7757 27.9405 12.3024C30.32 11.8291 32.7864 12.072 35.0279 13.0004C37.2693 13.9289 39.1851 15.5011 40.533 17.5184C41.8808 19.5356 42.6003 21.9072 42.6003 24.3333C42.5967 27.5856 41.3032 30.7036 39.0036 33.0033C36.7039 35.303 33.5858 36.5965 30.3336 36.6ZM26.1183 18.0252C27.366 17.1916 28.8328 16.7466 30.3333 16.7466C32.3454 16.7466 34.2751 17.5459 35.6978 18.9687C37.1206 20.3915 37.9199 22.3212 37.9199 24.3333C37.9199 25.8338 37.475 27.3006 36.6413 28.5482C35.8077 29.7959 34.6228 30.7683 33.2366 31.3425C31.8503 31.9167 30.3248 32.0669 28.8532 31.7742C27.3815 31.4815 26.0297 30.7589 24.9687 29.6979C23.9077 28.6369 23.1851 27.2851 22.8924 25.8134C22.5996 24.3417 22.7499 22.8163 23.3241 21.43C23.8983 20.0437 24.8707 18.8589 26.1183 18.0252ZM27.3022 28.8533C28.1993 29.4531 29.2541 29.7733 30.3333 29.7733V29.7866C31.7796 29.7866 33.1667 29.2121 34.1894 28.1894C35.212 27.1667 35.7866 25.7796 35.7866 24.3333C35.7892 23.2542 35.4716 22.1985 34.874 21.3C34.2764 20.4014 33.4256 19.7004 32.4294 19.2856C31.4332 18.8708 30.3363 18.7609 29.2776 18.9698C28.2188 19.1787 27.2459 19.697 26.4819 20.4592C25.7179 21.2213 25.1972 22.193 24.9857 23.2512C24.7742 24.3094 24.8814 25.4065 25.2938 26.4038C25.7061 27.401 26.4051 28.2535 27.3022 28.8533Z" fill="#18058D"/>
<path d="M27.2807 23.7V22.2H26.1384V16.8C26.1384 14.8642 25.6168 12.9817 24.651 11.3431L27.0645 8.91214L28.114 7.85505L27.0642 6.79821L25.449 5.17211L24.3848 4.10072L23.3206 5.17211L20.9176 7.59133C20.0517 7.07605 19.1172 6.6867 18.1423 6.43525V3V1.5H16.6423H14.3577H12.8577V3V6.43525C11.8831 6.68663 10.9488 7.07584 10.0832 7.5909L7.67918 5.17186L6.61496 4.10097L5.55099 5.17211L3.93578 6.79821L2.88577 7.8553L3.93578 8.91239L6.34947 11.3424C5.38336 12.9811 4.86162 14.8639 4.86162 16.8V22.2H3.71932V23.7V26V27.5H5.21932H25.7807H27.2807V26V23.7Z" fill="#18058D" stroke="white" stroke-width="3"/>
</svg>
