<svg width="43" height="43" viewBox="0 0 43 43" fill="none" xmlns="http://www.w3.org/2000/svg">
<path fill-rule="evenodd" clip-rule="evenodd" d="M21.4784 0C17.259 0 13.1345 1.25118 9.6262 3.59531C6.11796 5.93945 3.38361 9.27126 1.76894 13.1694C0.154271 17.0676 -0.2682 21.357 0.554951 25.4953C1.3781 29.6335 3.40991 33.4348 6.39343 36.4183C9.37695 39.4018 13.1782 41.4336 17.3164 42.2568C21.4547 43.0799 25.7441 42.6574 29.6423 41.0428C33.5404 39.4281 36.8722 36.6937 39.2164 33.1855C41.5605 29.6772 42.8117 25.5527 42.8117 21.3333C42.8117 15.6754 40.5641 10.2492 36.5633 6.24839C32.5625 2.24761 27.1363 0 21.4784 0ZM21.4784 40C17.7865 40 14.1774 38.9052 11.1077 36.8541C8.03801 34.803 5.64545 31.8876 4.23262 28.4768C2.81978 25.0659 2.45012 21.3126 3.17038 17.6916C3.89064 14.0707 5.66846 10.7446 8.27904 8.13401C10.8896 5.52343 14.2157 3.7456 17.8367 3.02534C21.4577 2.30508 25.2109 2.67475 28.6218 4.08758C32.0327 5.50042 34.948 7.89297 36.9991 10.9627C39.0503 14.0324 40.145 17.6414 40.145 21.3333C40.145 26.284 38.1784 31.032 34.6777 34.5327C31.177 38.0333 26.4291 40 21.4784 40ZM21.4786 6.93335C18.6306 6.93335 15.8465 7.77789 13.4784 9.36019C11.1103 10.9425 9.26466 13.1915 8.17476 15.8227C7.08486 18.454 6.79969 21.3493 7.35532 24.1426C7.91095 26.936 9.28241 29.5018 11.2963 31.5157C13.3102 33.5296 15.876 34.901 18.6693 35.4567C21.4627 36.0123 24.358 35.7271 26.9893 34.6372C29.6205 33.5473 31.8695 31.7016 33.4518 29.3336C35.0341 26.9655 35.8786 24.1814 35.8786 21.3333C35.8751 17.5153 34.3568 13.8547 31.6571 11.1549C28.9573 8.45515 25.2967 6.93688 21.4786 6.93335ZM21.4786 33.6C19.0525 33.6 16.6809 32.8806 14.6636 31.5327C12.6464 30.1848 11.0741 28.269 10.1457 26.0276C9.21727 23.7862 8.97435 21.3197 9.44766 18.9402C9.92097 16.5607 11.0893 14.375 12.8048 12.6595C14.5203 10.944 16.706 9.77569 19.0855 9.30238C21.465 8.82907 23.9314 9.07199 26.1729 10.0004C28.4143 10.9289 30.3301 12.5011 31.678 14.5184C33.0259 16.5356 33.7453 18.9072 33.7453 21.3333C33.7418 24.5856 32.4483 27.7036 30.1486 30.0033C27.8489 32.303 24.7309 33.5965 21.4786 33.6ZM17.2634 15.0252C18.511 14.1916 19.9778 13.7466 21.4783 13.7466C23.4904 13.7466 25.4201 14.5459 26.8429 15.9687C28.2656 17.3915 29.0649 19.3212 29.0649 21.3333C29.0649 22.8338 28.62 24.3006 27.7864 25.5482C26.9527 26.7959 25.7679 27.7683 24.3816 28.3425C22.9953 28.9167 21.4699 29.0669 19.9982 28.7742C18.5265 28.4815 17.1747 27.7589 16.1137 26.6979C15.0527 25.6369 14.3301 24.2851 14.0374 22.8134C13.7447 21.3417 13.8949 19.8163 14.4691 18.43C15.0433 17.0437 16.0157 15.8589 17.2634 15.0252ZM18.4472 25.8533C19.3443 26.4531 20.3991 26.7733 21.4783 26.7733V26.7866C22.9246 26.7866 24.3117 26.2121 25.3344 25.1894C26.3571 24.1667 26.9316 22.7796 26.9316 21.3333C26.9343 20.2542 26.6167 19.1985 26.019 18.3C25.4214 17.4014 24.5707 16.7004 23.5744 16.2856C22.5782 15.8708 21.4813 15.7609 20.4226 15.9698C19.3639 16.1787 18.3909 16.697 17.6269 17.4592C16.8629 18.2213 16.3422 19.193 16.1307 20.2512C15.9192 21.3094 16.0264 22.4065 16.4388 23.4038C16.8511 24.401 17.5501 25.2535 18.4472 25.8533Z" fill="#18058D"/>
</svg>
