<svg width="16" height="17" viewBox="0 0 16 17" fill="none" xmlns="http://www.w3.org/2000/svg">
<path fill-rule="evenodd" clip-rule="evenodd" d="M10.9777 15.0959V11.8001H12.1802V15.0959C12.1802 15.3872 12.0535 15.6667 11.828 15.8727C11.6025 16.0787 11.2966 16.1945 10.9777 16.1945H1.35787C1.03896 16.1945 0.733102 16.0787 0.507593 15.8727C0.282085 15.6667 0.155396 15.3872 0.155396 15.0959V1.91262C0.155396 1.62125 0.282085 1.34181 0.507593 1.13578C0.733102 0.929756 1.03896 0.814011 1.35787 0.814011H7.37027V1.91262H1.35787V15.0959H10.9777ZM13.527 1.0667L15.5111 2.8794H15.505C15.6813 3.04369 15.78 3.26457 15.78 3.49462C15.78 3.72467 15.6813 3.94555 15.505 4.10984L7.08769 11.8001H3.76283V8.75694L12.1802 1.0667C12.36 0.905664 12.6018 0.815463 12.8536 0.815463C13.1054 0.815463 13.3471 0.905664 13.527 1.0667ZM4.96531 10.7015H6.58866L12.2704 5.51605L10.641 4.02744L4.96531 9.21835V10.7015ZM11.4888 3.25292L13.1181 4.74153L14.4829 3.49462L12.8536 2.00601L11.4888 3.25292Z" fill="#18058D"/>
</svg>
