<svg width="19" height="18" viewBox="0 0 19 18" fill="none" xmlns="http://www.w3.org/2000/svg">
<path d="M9.42773 9C8.23426 9 7.08967 8.52589 6.24575 7.68198C5.40184 6.83807 4.92773 5.69347 4.92773 4.5C4.92773 3.30653 5.40184 2.16193 6.24575 1.31802C7.08967 0.474106 8.23426 0 9.42773 0C10.6212 0 11.7658 0.474106 12.6097 1.31802C13.4536 2.16193 13.9277 3.30653 13.9277 4.5C13.9277 5.69347 13.4536 6.83807 12.6097 7.68198C11.7658 8.52589 10.6212 9 9.42773 9ZM9.42773 12.375C13.012 12.375 16.2284 13.0174 18.4277 15.8209V18H0.427734V15.8209C2.62711 13.0162 5.84348 12.375 9.42773 12.375Z" fill="white"/>
</svg>
