<svg width="43" height="38" viewBox="0 0 43 38" fill="none" xmlns="http://www.w3.org/2000/svg">
<path d="M40 0H2.66667C1.95942 0 1.28115 0.280951 0.781048 0.781048C0.280951 1.28115 0 1.95942 0 2.66667V29.3333C0 30.0406 0.280951 30.7189 0.781048 31.219C1.28115 31.719 1.95942 32 2.66667 32H22.6667L23.4267 31.0667L24.6667 29.5467L24.5467 29.3333H2.66667V2.66667H40V14.08C41.013 14.7357 41.9134 15.5507 42.6667 16.4933V2.66667C42.6667 1.95942 42.3857 1.28115 41.8856 0.781048C41.3855 0.280951 40.7072 0 40 0Z" fill="#18058D"/>
<path d="M6.66669 8H29.3334V10.1333H6.66669V8Z" fill="#18058D"/>
<path d="M6.66669 13.3333H21.3334V15.4666H6.66669V13.3333Z" fill="#18058D"/>
<path d="M6.66669 22.6667H20V24.8H6.66669V22.6667Z" fill="#18058D"/>
<path d="M33.9467 14.9734C32.2405 14.9598 30.5698 15.4613 29.1531 16.4123C27.7364 17.3632 26.6396 18.7195 26.0059 20.3037C25.3722 21.8879 25.2311 23.6265 25.6012 25.2922C25.9712 26.9578 26.8351 28.4731 28.08 29.64L25.4934 32.8L26.6934 37.6133L31.5734 31.6667C33.1181 32.1234 34.762 32.1234 36.3067 31.6667L41.1867 37.6133L42.3867 32.8L39.8 29.64C41.0449 28.4731 41.9088 26.9578 42.2789 25.2922C42.6489 23.6265 42.5079 21.8879 41.8742 20.3037C41.2405 18.7195 40.1436 17.3632 38.7269 16.4123C37.3102 15.4613 35.6396 14.9598 33.9334 14.9734H33.9467ZM33.9467 29.2134C32.8136 29.1976 31.7106 28.8472 30.7761 28.2062C29.8417 27.5653 29.1176 26.6623 28.6948 25.611C28.2721 24.5596 28.1697 23.4068 28.4004 22.2973C28.6311 21.1879 29.1846 20.1714 29.9914 19.3757C30.7981 18.58 31.8222 18.0406 32.9347 17.8253C34.0472 17.61 35.1985 17.7283 36.2439 18.1655C37.2893 18.6027 38.1822 19.3393 38.8101 20.2825C39.4381 21.2257 39.7732 22.3335 39.7734 23.4667C39.7593 25.0003 39.1383 26.4659 38.0464 27.5429C36.9544 28.6198 35.4804 29.2205 33.9467 29.2134Z" fill="#18058D"/>
</svg>
