<svg width="44" height="44" viewBox="0 0 44 44" fill="none" xmlns="http://www.w3.org/2000/svg">
<path d="M6.52744 20.2271H20.8878V22.3159H6.52744V20.2271Z" fill="#18058D"/>
<path d="M6.52744 29.3655H19.5823V31.4543H6.52744V29.3655Z" fill="#18058D"/>
<path d="M33.2376 21.8329C31.5671 21.8196 29.9313 22.3106 28.5442 23.2417C27.1571 24.1728 26.0831 25.5007 25.4627 27.0519C24.8422 28.603 24.7041 30.3053 25.0664 31.9362C25.4288 33.567 26.2746 35.0507 27.4935 36.1932L24.9609 39.2872L26.1358 44L30.9139 38.1775C32.4263 38.6247 34.0359 38.6247 35.5484 38.1775L40.3264 44L41.5014 39.2872L38.9687 36.1932C40.1876 35.0507 41.0335 33.567 41.3958 31.9362C41.7581 30.3053 41.62 28.603 40.9996 27.0519C40.3791 25.5007 39.3051 24.1728 37.918 23.2417C36.5309 22.3106 34.8952 21.8196 33.2246 21.8329H33.2376ZM33.2376 35.7754C32.1283 35.76 31.0482 35.4169 30.1333 34.7893C29.2184 34.1618 28.5094 33.2777 28.0955 32.2483C27.6816 31.2189 27.5813 30.0901 27.8072 29.0039C28.033 27.9176 28.575 26.9224 29.3649 26.1433C30.1549 25.3642 31.1575 24.8361 32.2468 24.6252C33.336 24.4144 34.4633 24.5303 35.4869 24.9584C36.5105 25.3865 37.3847 26.1076 37.9995 27.0311C38.6144 27.9546 38.9425 29.0393 38.9426 30.1488C38.9288 31.6504 38.3209 33.0854 37.2517 34.1399C36.1826 35.1943 34.7393 35.7824 33.2376 35.7754Z" fill="#18058D"/>
<path d="M22.1933 17.0417C21.8565 16.4133 21.6647 15.7174 21.6319 15.0052H6.52744V17.094H22.2846L22.1933 17.0417Z" fill="#18058D"/>
<path d="M41.3577 19.4438H39.1645V20.9582C40.1563 21.6002 41.038 22.3981 41.7755 23.3211V19.4047L41.3577 19.4438Z" fill="#18058D"/>
<path d="M2.61097 35.8929V9.78321H23.6815L25.1828 7.17224H2.61097C1.9185 7.17224 1.25439 7.44732 0.764735 7.93698C0.275083 8.42663 0 9.09074 0 9.78321V35.8929C0 36.5854 0.275083 37.2495 0.764735 37.7391C1.25439 38.2288 1.9185 38.5039 2.61097 38.5039H22.1932L22.9374 37.59L24.1515 36.1018L24.034 35.8929H2.61097Z" fill="#18058D"/>
<path d="M32.4413 0.827618L24.9739 13.6997C24.8002 13.9547 24.7005 14.2528 24.6858 14.561C24.6711 14.8692 24.742 15.1755 24.8907 15.4459C25.0394 15.7162 25.2601 15.9401 25.5282 16.0928C25.7964 16.2454 26.1016 16.3208 26.41 16.3107H41.3578C41.6662 16.3208 41.9713 16.2454 42.2395 16.0928C42.5076 15.9401 42.7283 15.7162 42.877 15.4459C43.0257 15.1755 43.0966 14.8692 43.0819 14.561C43.0673 14.2528 42.9675 13.9547 42.7938 13.6997L35.3264 0.827618C35.1792 0.575731 34.9685 0.366796 34.7154 0.221598C34.4623 0.0763995 34.1756 0 33.8839 0C33.5921 0 33.3054 0.0763995 33.0523 0.221598C32.7992 0.366796 32.5886 0.575731 32.4413 0.827618Z" fill="#18058D"/>
</svg>
